# xmcd
#
# Track frame offsets: 
#        150
#        23525
#        40205
#        58622
#        72680
#        86122
#        99287
#        113040
#        126127
#        143615
#        162990
#        176997
#        189485
#        201970
#        217872
#        235082
#
# Disc length: 3291 seconds
#
# Revision: 4
# Processed by: cddbd v1.5.2PL0 Copyright (c) Steve Scherf et al.
# Submitted via: ExactAudioCopy v0.99pb5
#
DISCID=de0cd910
DTITLE=Various Artist - The Best Of Country Music CD2
DYEAR=1997
DGENRE=Country
TTITLE0=Gunter Gabriel and Boxcar Willie - Ehrbares Mädchen
TTITLE1=Wild Canyon - Come On Home And Sing The Blues To Daddy
TTITLE2=Don Williams - I Belive In You
TTITLE3=Pirates Of The Mississippi - Speak Of The Devil
TTITLE4=Truck Stop - Arizona-Arizona
TTITLE5=The Jackys - Tchettchett-Boogie
TTITLE6=Dave Dudley - Deep In The Heart Of Texas
TTITLE7=Mike Herman and Booze Company - Verliebt In Country
TTITLE8=The Bellamy Brothers - I Love You (More And More)
TTITLE9=Kris Kristofferson - Me And Bobby Mc Gee
TTITLE10=Dagmar (The Lady Of Country) - Du Hast Doch Ein Rad Ab
TTITLE11=The Moody Brothers - Dreaming
TTITLE12=Willie Nelson - On The Road Again
TTITLE13=Alabama - On This Side Of The Moon
TTITLE14=Bobby Bare - Silvia's Mother
TTITLE15=Johnny Cash - Ring Of Fire
EXTD=YEAR: 1997
EXTT0=
EXTT1=
EXTT2=
EXTT3=
EXTT4=
EXTT5=
EXTT6=
EXTT7=
EXTT8=
EXTT9=
EXTT10=
EXTT11=
EXTT12=
EXTT13=
EXTT14=
EXTT15=
PLAYORDER=
